<?xml version="1.0" encoding="UTF-8" standalone="no"?>
<!-- Created with Inkscape (http://www.inkscape.org/) -->
<svg
   xmlns:dc="http://purl.org/dc/elements/1.1/"
   xmlns:cc="http://web.resource.org/cc/"
   xmlns:rdf="http://www.w3.org/1999/02/22-rdf-syntax-ns#"
   xmlns:svg="http://www.w3.org/2000/svg"
   xmlns="http://www.w3.org/2000/svg"
   xmlns:sodipodi="http://inkscape.sourceforge.net/DTD/sodipodi-0.dtd"
   xmlns:inkscape="http://www.inkscape.org/namespaces/inkscape"
   width="48pt"
   height="48pt"
   id="svg1093"
   sodipodi:version="0.32"
   inkscape:version="0.43"
   sodipodi:docbase="/home/projects/CIMTool-trunk/graphics"
   sodipodi:docname="element.svg"
   inkscape:export-filename="/home/projects/CIMTool-trunk/guide/element.gif"
   inkscape:export-xdpi="72.000000"
   inkscape:export-ydpi="72.000000">
  <defs
     id="defs3" />
  <sodipodi:namedview
     id="base"
     pagecolor="#ffffff"
     bordercolor="#666666"
     borderopacity="1.0"
     inkscape:pageopacity="0.0"
     inkscape:pageshadow="2"
     inkscape:zoom="8.0000000"
     inkscape:cx="24.000000"
     inkscape:cy="24.000000"
     inkscape:current-layer="layer1"
     showgrid="true"
     inkscape:grid-bbox="true"
     gridspacingy="1.0000000pt"
     gridspacingx="1.0000000pt"
     gridoriginy="0.0000000pt"
     gridoriginx="0.0000000pt"
     inkscape:window-width="772"
     inkscape:window-height="584"
     inkscape:window-x="84"
     inkscape:window-y="226" />
  <metadata
     id="metadata4">
    <rdf:RDF>
      <cc:Work
         rdf:about="">
        <dc:format>image/svg+xml</dc:format>
        <dc:type
           rdf:resource="http://purl.org/dc/dcmitype/StillImage" />
      </cc:Work>
    </rdf:RDF>
  </metadata>
  <g
     id="layer1"
     inkscape:label="Layer 1"
     inkscape:groupmode="layer">
    <path
       style="font-size:36.000000;font-style:normal;font-variant:normal;font-weight:bold;font-stretch:normal;fill:#150099;fill-opacity:1.0000000;stroke:none;stroke-width:1.0000000pt;stroke-linecap:butt;stroke-linejoin:miter;stroke-opacity:1.0000000;font-family:URW Bookman L;text-anchor:start;writing-mode:lr;opacity:1.0000000;color:#000000;fill-rule:nonzero;marker:none;marker-start:none;marker-mid:none;marker-end:none;stroke-miterlimit:4.0000000;stroke-dasharray:none;stroke-dashoffset:0;visibility:visible;display:block;"
       d="M 7.4312500,25.092000 L 20.067250,19.188000 L 20.067250,14.544000 L 1.7432500,23.112000 L 1.7432500,27.108000 L 20.067250,35.676000 L 20.067250,31.032000 L 7.4312500,25.092000"
       id="text1103" />
    <path
       style="font-size:36.000000;font-style:normal;font-variant:normal;font-weight:bold;font-stretch:normal;fill:#218dd0;fill-opacity:1.0000000;stroke:none;stroke-width:0.62500000;stroke-linecap:butt;stroke-linejoin:miter;stroke-opacity:1.0000000;font-family:URW Bookman L;text-anchor:start;writing-mode:lr;stroke-miterlimit:4.0000000;stroke-dasharray:none;"
       d="M 29.53125 16.78125 C 24.055822 16.84083 20.1875 20.700224 20.1875 26.09375 C 20.1875 31.565745 24.280755 35.53125 29.96875 35.53125 C 32.704747 35.531251 35.197251 34.540498 36.78125 32.8125 C 37.46525 32.092499 37.88125 31.507249 38.78125 30.03125 L 35.78125 28.5625 C 34.377251 30.650497 32.898499 31.625 31.0625 31.625 C 28.254504 31.625 26.651501 29.590496 26.6875 26.0625 L 38.375 26.0625 C 38.375 23.506503 38.1215 22.005249 37.4375 20.78125 C 36.033503 18.297252 33.112247 16.78125 29.65625 16.78125 C 29.612938 16.78125 29.574364 16.780781 29.53125 16.78125 z M 29.53125 20.09375 C 29.556245 20.093171 29.599688 20.09375 29.625 20.09375 C 31.244998 20.09375 31.928001 21.013252 32 23.28125 L 26.90625 23.28125 C 27.012562 21.33219 27.956549 20.1302 29.53125 20.09375 z "
       id="path1109" />
    <path
       style="font-size:36.000000;font-style:normal;font-variant:normal;font-weight:bold;font-stretch:normal;fill:#150099;fill-opacity:1.0000000;stroke:none;stroke-width:1.0000000pt;stroke-linecap:butt;stroke-linejoin:miter;stroke-opacity:1.0000000;font-family:URW Bookman L;text-anchor:start;writing-mode:lr;opacity:1.0000000;color:#000000;fill-rule:nonzero;marker:none;marker-start:none;marker-mid:none;marker-end:none;stroke-miterlimit:4.0000000;stroke-dasharray:none;stroke-dashoffset:0;visibility:visible;display:block;"
       d="M 51.812000,25.092000 L 39.176000,31.032000 L 39.176000,35.676000 L 57.500000,27.108000 L 57.500000,23.112000 L 39.176000,14.544000 L 39.176000,19.188000 L 51.812000,25.092000"
       id="path1107" />
  </g>
</svg>
