<?xml version="1.0" encoding="UTF-8" standalone="no"?>
<!-- Created with Inkscape (http://www.inkscape.org/) -->
<svg
   xmlns:dc="http://purl.org/dc/elements/1.1/"
   xmlns:cc="http://web.resource.org/cc/"
   xmlns:rdf="http://www.w3.org/1999/02/22-rdf-syntax-ns#"
   xmlns:svg="http://www.w3.org/2000/svg"
   xmlns="http://www.w3.org/2000/svg"
   xmlns:sodipodi="http://inkscape.sourceforge.net/DTD/sodipodi-0.dtd"
   xmlns:inkscape="http://www.inkscape.org/namespaces/inkscape"
   width="343pt"
   height="340pt"
   id="svg1307"
   sodipodi:version="0.32"
   inkscape:version="0.43"
   sodipodi:docbase="/home/projects/CIMToola"
   sodipodi:docname="hammer.svg">
  <defs
     id="defs1309" />
  <sodipodi:namedview
     pagecolor="#ffffff"
     bordercolor="#666666"
     borderopacity="1.0"
     inkscape:pageopacity="0.0"
     inkscape:pageshadow="2"
     inkscape:zoom="0.8"
     inkscape:cx="210"
     inkscape:cy="210"
     inkscape:document-units="pt"
     inkscape:current-layer="layer1"
     id="namedview1311"
     showguides="true"
     inkscape:guide-bbox="true"
     inkscape:window-width="791"
     inkscape:window-height="542"
     inkscape:window-x="481"
     inkscape:window-y="225" />
  <metadata
     id="metadata1313">
    <rdf:RDF>
      <cc:Work
         rdf:about="">
        <dc:format>image/svg+xml</dc:format>
        <dc:type
           rdf:resource="http://purl.org/dc/dcmitype/StillImage" />
      </cc:Work>
    </rdf:RDF>
  </metadata>
  <g
     inkscape:label="Layer 1"
     inkscape:groupmode="layer"
     id="layer1">
    <path
       id="path1366"
       style="fill:#000000;stroke:#000000;stroke-opacity:1;fill-opacity:1"
       d="M 240.99525,370.30902 C 240.59634,289.70265 242.24501,207.85492 242.34318,127.25 C 258.636,102.01818 295.73189,111.67496 315.85509,126.81659 C 322.75363,134.30218 350.14085,152.89581 340.15533,129.33728 C 320.61104,73.791476 262.92102,31.864775 203.26006,36.055772 C 183.06445,34.280791 166.84205,36.579126 150.86945,47.934516 C 125.06214,50.725427 102.51169,27.672796 76.247802,36.521033 C 50.572631,48.807113 70.101656,85.324099 65.13641,108.03479 C 55.343641,142.37017 103.43863,137.31345 123.45635,127.25122 C 146.23005,104.16832 177.3621,137.37807 168.01454,163.30644 C 165.42001,193.94433 168.2383,335.58511 167.50459,371 C 167.50459,371 241.51688,370.01488 240.99525,370.30902 z M 90.941223,107.25 C 92.92429,92.695624 86.866639,73.296571 91.20117,61.076088 C 98.489556,62.043196 111.73209,57.05616 108.07843,68.965311 C 108.07843,81.783708 108.07843,94.602105 108.07843,107.4205 C 102.37209,107.39823 96.616952,108.00001 90.941223,107.25 z M 177.99995,105.94098 C 165.42784,99.573076 151.55783,95.252042 137.37257,95.177515 C 134.18327,102.12257 121.73317,98.781068 122.44713,91.173225 C 120.84717,84.442519 124.48257,76.553406 131.13041,74.141437 C 140.4422,75.458344 151.01482,76.836365 159.08325,70.828765 C 172.36931,64.314696 186.99515,59.317367 201.99125,60.466919 C 223.09011,59.945304 244.83284,63.359909 263.40645,73.841456 C 270.24171,71.686192 276.70214,81.564774 271.72269,86.85012 C 263.95448,91.732978 253.8678,86.454313 246.20222,91.637156 C 233.95552,97.277173 222.97984,107.30511 208.822,107.46173 C 198.52061,107.558 188.30781,105.57122 177.99995,105.94098 z " />
  </g>
</svg>
