<?xml version="1.0" encoding="UTF-8" standalone="no"?>
<!-- Created with Inkscape (http://www.inkscape.org/) -->
<svg
   xmlns:dc="http://purl.org/dc/elements/1.1/"
   xmlns:cc="http://web.resource.org/cc/"
   xmlns:rdf="http://www.w3.org/1999/02/22-rdf-syntax-ns#"
   xmlns:svg="http://www.w3.org/2000/svg"
   xmlns="http://www.w3.org/2000/svg"
   xmlns:sodipodi="http://inkscape.sourceforge.net/DTD/sodipodi-0.dtd"
   xmlns:inkscape="http://www.inkscape.org/namespaces/inkscape"
   width="32px"
   height="32px"
   id="svg3251"
   sodipodi:version="0.32"
   inkscape:version="0.43"
   inkscape:export-filename="/home/projects/CIMTool-trunk/src/au/com/langdale/ui/icons/cimtool.gif"
   inkscape:export-xdpi="90"
   inkscape:export-ydpi="90"
   sodipodi:docbase="/home/projects/CIMTool-trunk/graphics"
   sodipodi:docname="icon.svg">
  <defs
     id="defs3253" />
  <sodipodi:namedview
     id="base"
     pagecolor="#ffffff"
     bordercolor="#666666"
     borderopacity="1.0"
     inkscape:pageopacity="0.0"
     inkscape:pageshadow="2"
     inkscape:zoom="11.71875"
     inkscape:cx="16"
     inkscape:cy="16"
     inkscape:current-layer="layer1"
     showgrid="true"
     inkscape:grid-bbox="true"
     inkscape:document-units="px"
     inkscape:window-width="791"
     inkscape:window-height="542"
     inkscape:window-x="0"
     inkscape:window-y="225" />
  <metadata
     id="metadata3256">
    <rdf:RDF>
      <cc:Work
         rdf:about="">
        <dc:format>image/svg+xml</dc:format>
        <dc:type
           rdf:resource="http://purl.org/dc/dcmitype/StillImage" />
      </cc:Work>
    </rdf:RDF>
  </metadata>
  <g
     id="layer1"
     inkscape:label="Layer 1"
     inkscape:groupmode="layer">
    <path
       id="path1366"
       style="fill:#000000;fill-opacity:1;stroke:#000000;stroke-opacity:1"
       d="M 19.787682,36.433021 C 19.749013,28.619306 19.908829,20.685256 19.918346,12.871683 C 21.497719,10.425794 25.093669,11.36189 27.044347,12.829669 C 27.713068,13.555297 30.367894,15.357704 29.399933,13.074016 C 27.505373,7.689592 21.913095,3.625355 16.129758,4.031616 C 14.17206,3.859556 12.599517,4.082348 11.051185,5.183105 C 8.5495086,5.453645 6.3635436,3.219 3.8176106,4.076718 C 1.3287436,5.267688 3.2218216,8.807527 2.7405076,11.009023 C 1.7912296,14.337383 6.4533996,13.847202 8.3938506,12.871802 C 10.601459,10.634221 13.619294,13.853465 12.713174,16.366874 C 12.461669,19.33681 12.734864,33.066999 12.663741,36.5 C 12.663741,36.5 19.838246,36.404508 19.787682,36.433021 z M 5.2419406,10.932949 C 5.4341736,9.522098 4.8469636,7.641615 5.2671376,6.457004 C 5.9736516,6.550753 7.2573386,6.067325 6.9031666,7.22176 C 6.9031666,8.464332 6.9031666,9.706904 6.9031666,10.949476 C 6.3500106,10.947317 5.7921296,11.005652 5.2419406,10.932949 z M 13.681126,10.806059 C 12.462426,10.188776 11.117915,9.769906 9.7428416,9.762684 C 9.4336806,10.435914 8.2268086,10.111999 8.2960186,9.374519 C 8.1409236,8.722067 8.4933266,7.957325 9.1377476,7.723517 C 10.040403,7.851171 11.065278,7.984752 11.847405,7.402396 C 13.135312,6.770944 14.553092,6.28652 16.006764,6.397954 C 18.052016,6.347389 20.159686,6.678391 21.96015,7.694436 C 22.622738,7.485512 23.24899,8.443109 22.766297,8.955453 C 22.013273,9.428781 21.035504,8.917084 20.29243,9.419492 C 19.105273,9.966215 18.041329,10.938293 16.668914,10.953473 C 15.670331,10.962806 14.680337,10.770213 13.681126,10.806059 z "
       inkscape:export-filename="/home/projects/CIMToola/logo.png"
       inkscape:export-xdpi="68.419998"
       inkscape:export-ydpi="68.419998" />
  </g>
</svg>
