<?xml version="1.0" encoding="UTF-8" standalone="no"?>
<!-- Created with Inkscape (http://www.inkscape.org/) -->
<svg
   xmlns:dc="http://purl.org/dc/elements/1.1/"
   xmlns:cc="http://web.resource.org/cc/"
   xmlns:rdf="http://www.w3.org/1999/02/22-rdf-syntax-ns#"
   xmlns:svg="http://www.w3.org/2000/svg"
   xmlns="http://www.w3.org/2000/svg"
   xmlns:sodipodi="http://inkscape.sourceforge.net/DTD/sodipodi-0.dtd"
   xmlns:inkscape="http://www.inkscape.org/namespaces/inkscape"
   width="343pt"
   height="340pt"
   id="svg2345"
   sodipodi:version="0.32"
   inkscape:version="0.43"
   sodipodi:docbase="/home/projects/CIMTool-trunk/graphics"
   sodipodi:docname="logo.svg"
   inkscape:export-filename="/home/projects/CIMTool-trunk/graphics/logo.png"
   inkscape:export-xdpi="68.419998"
   inkscape:export-ydpi="68.419998">
  <defs
     id="defs2347" />
  <sodipodi:namedview
     pagecolor="#ffffff"
     bordercolor="#666666"
     borderopacity="1.0"
     inkscape:pageopacity="0.0"
     inkscape:pageshadow="2"
     inkscape:zoom="1.4117647"
     inkscape:cx="214.375"
     inkscape:cy="212.5"
     inkscape:document-units="pt"
     inkscape:current-layer="layer1"
     id="namedview2349"
     inkscape:window-width="1272"
     inkscape:window-height="767"
     inkscape:window-x="0"
     inkscape:window-y="0" />
  <metadata
     id="metadata2351">
    <rdf:RDF>
      <cc:Work
         rdf:about="">
        <dc:format>image/svg+xml</dc:format>
        <dc:type
           rdf:resource="http://purl.org/dc/dcmitype/StillImage" />
      </cc:Work>
    </rdf:RDF>
  </metadata>
  <g
     inkscape:label="Layer 1"
     inkscape:groupmode="layer"
     id="layer1">
    <rect
       style="opacity:1;color:#000000;fill:#ffffff;fill-opacity:1;fill-rule:nonzero;stroke:none;stroke-width:1;stroke-linecap:butt;stroke-linejoin:miter;marker:none;marker-start:none;marker-mid:none;marker-end:none;stroke-miterlimit:4;stroke-dasharray:none;stroke-dashoffset:0;stroke-opacity:1;visibility:visible;display:inline;overflow:visible"
       id="rect1380"
       width="344.25003"
       height="87.124954"
       x="42.249985"
       y="170.92947" />
    <g
       id="g2255">
      <path
         inkscape:export-ydpi="68.419998"
         inkscape:export-xdpi="68.419998"
         inkscape:export-filename="/home/projects/CIMToola/logo.png"
         sodipodi:nodetypes="csccscssccsccsccssscccscccccsccccsscccccscccscccccccccccsccccsccsccccccscsccsccccscccccsssccsssccsssccsssccccsccccccsccccscccc"
         id="text2354"
         d="M 79.880228,203.7134 C 75.920232,201.8414 73.400224,201.2654 69.656228,201.2654 C 58.568239,201.2654 50.072228,210.04941 50.072228,221.5694 L 50.072228,226.3214 C 50.072228,237.26539 59.00024,245.2574 71.240228,245.2574 C 76.424223,245.2574 81.320231,243.9614 84.488228,241.6574 C 86.936226,239.9294 88.304228,238.0574 88.304228,236.4014 C 88.304228,234.4574 86.648226,232.8014 84.704228,232.8014 C 83.768229,232.8014 82.904227,233.1614 82.112228,233.9534 C 80.16823,235.9694 80.168227,235.9694 79.376228,236.4014 C 77.57623,237.4814 74.696225,238.0574 71.456228,238.0574 C 62.816237,238.0574 57.272228,233.37739 57.272228,226.1774 L 57.272228,221.5694 C 57.272228,214.00941 62.600235,208.4654 69.944228,208.4654 C 72.392226,208.4654 74.98423,209.1134 76.928228,210.1934 C 79.016226,211.3454 79.736228,212.2814 80.096228,214.0094 C 80.384228,215.7374 80.528229,216.2414 81.104228,216.8174 C 81.680227,217.3934 82.688229,217.8254 83.624228,217.8254 C 84.776227,217.8254 85.856229,217.2494 86.576228,216.3134 C 87.080227,215.6654 87.224228,214.8734 87.224228,213.0734 L 87.224228,207.0254 C 87.224228,205.2254 87.152228,204.6494 86.720228,204.0014 C 86.072229,202.9214 84.920227,202.2734 83.624228,202.2734 C 82.400229,202.2734 81.536227,202.7054 80.600228,204.0014 L 79.880228,203.7134 M 121.60382,209.4734 L 128.87582,209.4734 C 130.53181,209.4734 131.32382,209.3294 131.89982,208.9694 C 132.97982,208.3214 133.62782,207.0974 133.62782,205.8734 C 133.62782,204.7214 133.12382,203.6414 132.11582,202.9214 C 131.39582,202.4174 130.81981,202.2734 128.87582,202.2734 L 107.13182,202.2734 C 105.25982,202.2734 104.75582,202.3454 104.10782,202.7774 C 103.02782,203.4254 102.37982,204.6494 102.37982,205.8734 C 102.37982,207.0254 102.95582,208.1054 103.89182,208.8254 C 104.53982,209.3294 105.33182,209.4734 107.13182,209.4734 L 114.40382,209.4734 L 114.40382,237.0494 L 107.13182,237.0494 C 105.25982,237.0494 104.75582,237.1214 104.10782,237.5534 C 103.02782,238.2014 102.37982,239.4254 102.37982,240.6494 C 102.37982,241.7294 102.95582,242.8814 103.89182,243.5294 C 104.53982,244.0334 105.40382,244.2494 107.13182,244.2494 L 128.87582,244.2494 C 132.04381,244.2494 133.62782,243.0254 133.62782,240.6494 C 133.62782,239.4974 133.12382,238.4174 132.11582,237.6974 C 131.39582,237.1934 130.81981,237.0494 128.87582,237.0494 L 121.60382,237.0494 L 121.60382,209.4734 M 155.3354,216.2414 L 163.8314,234.3134 L 170.3834,234.3134 L 178.3754,216.2414 L 178.3754,237.0494 L 175.8554,237.0494 C 173.98341,237.0494 173.4794,237.1214 172.8314,237.5534 C 171.75141,238.2014 171.1034,239.4254 171.1034,240.6494 C 171.1034,241.7294 171.67941,242.8814 172.6154,243.5294 C 173.1914,244.0334 174.19941,244.2494 175.8554,244.2494 L 185.2154,244.2494 C 186.6554,244.2494 187.7354,244.0334 188.2394,243.7454 C 189.3194,243.0254 189.9674,241.8734 189.9674,240.6494 C 189.9674,238.3454 188.3834,237.0494 185.5754,237.0494 L 185.5754,209.4734 C 187.9514,209.2574 189.3194,207.9614 189.3194,205.8734 C 189.3194,204.7214 188.7434,203.6414 187.8794,202.9214 C 187.15941,202.4174 186.5114,202.2734 184.5674,202.2734 L 176.6474,202.2734 L 166.9274,223.6574 L 156.9914,202.2734 L 149.1434,202.2734 C 149.0714,202.2014 148.9994,202.2014 148.8554,202.2014 C 147.99141,202.2014 146.4794,202.4894 146.1194,202.7054 C 145.03941,203.4254 144.3914,204.6494 144.3914,205.8014 C 144.3914,207.9614 145.75941,209.2574 148.1354,209.4734 L 148.1354,237.0494 C 145.32741,237.0494 143.7434,238.3454 143.7434,240.6494 C 143.7434,241.8014 144.31941,242.8814 145.2554,243.5294 C 145.9034,244.0334 146.83941,244.2494 148.5674,244.2494 L 157.8554,244.2494 C 159.2954,244.2494 160.3754,244.0334 160.8794,243.7454 C 161.9594,243.0254 162.6074,241.8734 162.6074,240.6494 C 162.6074,239.4974 162.1034,238.4174 161.1674,237.6974 C 160.37541,237.1934 159.7994,237.0494 157.8554,237.0494 L 155.3354,237.0494 L 155.3354,216.2414 M 264.34258,211.8494 C 253.68659,211.8494 245.55058,219.12141 245.55058,228.6254 C 245.55058,237.98539 253.75859,245.4014 264.12658,245.4014 C 274.49457,245.4014 282.70258,237.98539 282.70258,228.6254 C 282.70258,219.33741 274.49457,211.8494 264.34258,211.8494 M 264.27058,219.0494 C 270.53457,219.0494 275.50258,223.29741 275.50258,228.6254 C 275.50258,234.0254 270.53457,238.2014 264.12658,238.2014 C 257.71859,238.2014 252.75058,234.0254 252.75058,228.6254 C 252.75058,223.15341 257.71859,219.0494 264.27058,219.0494 M 313.05018,211.8494 C 302.39419,211.8494 294.25818,219.12141 294.25818,228.6254 C 294.25818,237.98539 302.46619,245.4014 312.83418,245.4014 C 323.20217,245.4014 331.41018,237.98539 331.41018,228.6254 C 331.41018,219.33741 323.20217,211.8494 313.05018,211.8494 M 312.97818,219.0494 C 319.24217,219.0494 324.21018,223.29741 324.21018,228.6254 C 324.21018,234.0254 319.24217,238.2014 312.83418,238.2014 C 306.42618,238.2014 301.45818,234.0254 301.45818,228.6254 C 301.45818,223.15341 306.42618,219.0494 312.97818,219.0494 M 365.14177,199.3214 L 352.32577,199.3214 C 350.52577,199.3214 349.87777,199.3934 349.22977,199.8254 C 348.14977,200.4734 347.50177,201.6254 347.50177,202.9214 C 347.50177,204.0734 348.00577,205.1534 349.01377,205.8014 C 349.66177,206.3774 350.52577,206.5214 352.32577,206.5214 L 357.94177,206.5214 L 357.94177,237.0494 L 349.15777,237.0494 C 347.28577,237.0494 346.78177,237.1214 346.13377,237.5534 C 345.05377,238.2014 344.40577,239.4254 344.40577,240.6494 C 344.40577,241.7294 344.98177,242.8814 345.91777,243.5294 C 346.49377,244.0334 347.50177,244.2494 349.15777,244.2494 L 373.92577,244.2494 C 375.36577,244.2494 376.44577,244.0334 376.94977,243.7454 C 378.02977,243.0254 378.67777,241.8734 378.67777,240.6494 C 378.67777,239.4974 378.10177,238.4174 377.16577,237.6974 C 376.44577,237.1934 375.86977,237.0494 373.92577,237.0494 L 365.14177,237.0494 L 365.14177,199.3214"
         style="font-size:72px;font-style:normal;font-variant:normal;font-weight:bold;font-stretch:normal;text-align:center;line-height:100%;writing-mode:lr-tb;text-anchor:middle;fill:#000000;fill-opacity:1;stroke:none;stroke-width:1px;stroke-linecap:butt;stroke-linejoin:miter;stroke-opacity:1;font-family:Nimbus Mono L" />
      <path
         inkscape:export-ydpi="68.419998"
         inkscape:export-xdpi="68.419998"
         inkscape:export-filename="/home/projects/CIMToola/logo.png"
         d="M 228.55572,253.14702 C 228.4637,234.55224 228.84403,215.67109 228.86667,197.07664 C 232.62521,191.25601 241.18271,193.4837 245.82486,196.97666 C 247.41626,198.70348 253.73411,202.99278 251.43059,197.55815 C 246.92199,184.7445 233.6137,175.07258 219.85074,176.03939 C 215.19188,175.62993 211.4496,176.16012 207.76494,178.77966 C 201.81155,179.42348 196.60947,174.10556 190.55076,176.14672 C 184.62785,178.98095 189.13292,187.40492 187.98751,192.64396 C 185.72845,200.56466 196.82331,199.39815 201.44112,197.07693 C 206.6947,191.75202 213.87643,199.41305 211.72008,205.39437 C 211.12156,212.46211 211.7717,245.13669 211.60244,253.30642 C 211.60244,253.30642 228.67606,253.07917 228.55572,253.14702 z M 193.94032,192.46292 C 194.39779,189.10543 193.00037,184.63033 194.00029,181.81124 C 195.68162,182.03434 198.73649,180.88389 197.89365,183.63117 C 197.89365,186.5882 197.89365,189.54522 197.89365,192.50225 C 196.57727,192.49711 195.24964,192.63594 193.94032,192.46292 z M 214.02357,192.16095 C 211.12336,190.69196 207.92374,189.69515 204.6514,189.67797 C 203.91567,191.28009 201.0436,190.50925 201.2083,188.75423 C 200.83921,187.20155 201.67785,185.38164 203.21142,184.82523 C 205.35952,185.12902 207.79848,185.44691 209.65976,184.06104 C 212.72467,182.55834 216.09865,181.40553 219.55804,181.67071 C 224.42525,181.55038 229.44101,182.33808 233.72568,184.75603 C 235.30248,184.25884 236.79281,186.53769 235.64412,187.75695 C 233.8521,188.88336 231.52524,187.66564 229.7569,188.86125 C 226.93175,190.16232 224.39982,192.47564 221.1338,192.51176 C 218.75741,192.53397 216.40146,192.07565 214.02357,192.16095 z "
         style="fill:#000000;fill-opacity:1;stroke:#000000;stroke-opacity:1"
         id="path1366" />
    </g>
  </g>
</svg>
