/* XPM */
static char *icon[] = {
/* columns rows colors chars-per-pixel */
"32 32 39 1 ",
"  c #96B7BE",
". c #9AB9BE",
"X c #97B9C0",
"o c #9BBBC2",
"O c #A1BFC5",
"+ c #A5C1C6",
"@ c #A9C2C7",
"# c #A6C2C9",
"$ c #ACC6CC",
"% c #AEC8CE",
"& c #B0C7CA",
"* c #B4C9CD",
"= c #B8CBCE",
"- c #B4CCD1",
"; c #BACED3",
": c #BDD2D6",
"> c #BED3D8",
", c #C2D3D5",
"< c #C9D5D7",
"1 c #C3D6DA",
"2 c #CAD7D9",
"3 c #C7D9DD",
"4 c #CADADD",
"5 c #D2DDDE",
"6 c #CCDDE0",
"7 c #D0DFE3",
"8 c #D4E1E5",
"9 c #DBE4E5",
"0 c #DAE6E9",
"q c #DEE9EB",
"w c #E3EBED",
"e c #E8EEEE",
"r c #E6EFF0",
"t c #E8EFF1",
"y c #ECF2F3",
"u c #F2F6F6",
"i c #F4F7F8",
"p c #F6F9F9",
"a c #FCFDFD",
/* pixels */
"paaaaaaaaaaaaaaaaaaaaaaaaaaaaaap",
"aaaaaaaaaaaaaaaaaaaaaaaaaaaaaaaa",
"aaaaaaaaaaaaaaaaaaaaaaaaaaaaaaaa",
"paaaaaaaaaaaaaaaaaaaaaaaaaaaaaaa",
"paaaaaaaaaaaaaaaaaaaaaaaaaaaaaap",
"paaaaaaapupaaapppaaaaaaaaaaaaaaa",
"paaaaaap<+=5w2&@@&,wpaaaapaaaaap",
"iaapapae.OO...O*&@.O=yappapapppp",
"ippppppt+,<@,5euuuw,.&eppppppppi",
"uppppppy@,<;9wupue<=OO=upppppppu",
"yipppupt&&*@@@=:,&@*=&O4piiiiiiy",
"uiuiuuut;&&<8:$$$@<ytw,=euyiuuuy",
"yyyiyyuyeweyuq%%&&7uyut8tyyyyyyy",
"yyyyyyyryyytyq=--=5ytyyyyyyyyyyr",
"etytytrtettty9=;;-5trrrryrttrrrw",
"weewtrrreeerr9:;;;5erwrrwrwrwwew",
"qrrrqrrrwwwwr7;:>:4wqwqwqrrqqqrq",
"qq0qqq0q0qqqw7,>>:4qq0qqq00qqqq0",
"90000000000007:11>4q000000000080",
"88808808880892>11,29088888888887",
"77876777887772,311<8878777667776",
"66666666666663,11,14646666666664",
"3266666666666,,111:2333366613333",
"113111>>>1113;>111;1111>>>,1111,",
">>>>>>>>>>>>>;,11,;>:::>::>>>>::",
";;;;;;;;;-;;;-=;---;-:--;-;;----",
"------%-------%%**%-----%%-%-%%-",
"%%$%%%%$%%%%$$$$%#$$$$$%$$$$$$$$",
"########$#################O#####",
"#O#OOOOOOOOOOOOOOoOOooOooOoooooo",
"ooXoXXooXXXXoXXXXXoXXXXXooXXXXoo",
"XXXXXXXX  X XX  X XX    XX    XX"
};
